<mxfile host="Electron" modified="2024-05-10T16:13:57.371Z" agent="Mozilla/5.0 (Windows NT 10.0; Win64; x64) AppleWebKit/537.36 (KHTML, like Gecko) draw.io/24.0.4 Chrome/120.0.6099.109 Electron/28.1.0 Safari/537.36" etag="k22Mvxbu2Lx901uKZwxW" version="24.0.4" type="device">
  <diagram name="Page-1" id="c4acf3e9-155e-7222-9cf6-157b1a14988f">
    <mxGraphModel dx="1050" dy="1721" grid="1" gridSize="10" guides="1" tooltips="1" connect="1" arrows="1" fold="1" page="1" pageScale="1" pageWidth="850" pageHeight="1100" background="none" math="0" shadow="0">
      <root>
        <mxCell id="0" />
        <mxCell id="1" parent="0" />
        <mxCell id="LLiBjTSLDzSSIFjLQWU3-2" value="" style="rounded=0;whiteSpace=wrap;html=1;fillColor=none;strokeColor=#d3d3d3;strokeWidth=2;" vertex="1" parent="1">
          <mxGeometry x="50" y="-100" width="1010" height="1138" as="geometry" />
        </mxCell>
        <mxCell id="LLiBjTSLDzSSIFjLQWU3-5" value="Animal" style="swimlane;fontStyle=1;align=center;verticalAlign=top;childLayout=stackLayout;horizontal=1;startSize=30;horizontalStack=0;resizeParent=1;resizeParentMax=0;resizeLast=0;collapsible=1;marginBottom=0;whiteSpace=wrap;html=1;" vertex="1" parent="1">
          <mxGeometry x="80" y="110" width="160" height="244" as="geometry">
            <mxRectangle x="340" y="400" width="80" height="30" as="alternateBounds" />
          </mxGeometry>
        </mxCell>
        <mxCell id="LLiBjTSLDzSSIFjLQWU3-61" value="" style="endArrow=open;html=1;endSize=12;startArrow=diamondThin;startSize=14;startFill=0;edgeStyle=orthogonalEdgeStyle;rounded=0;exitX=0.5;exitY=0;exitDx=0;exitDy=0;entryX=0.5;entryY=0;entryDx=0;entryDy=0;" edge="1" parent="LLiBjTSLDzSSIFjLQWU3-5">
          <mxGeometry relative="1" as="geometry">
            <mxPoint x="75" as="sourcePoint" />
            <mxPoint x="615" y="60" as="targetPoint" />
            <Array as="points">
              <mxPoint x="75" y="-40" />
              <mxPoint x="615" y="-40" />
            </Array>
          </mxGeometry>
        </mxCell>
        <mxCell id="LLiBjTSLDzSSIFjLQWU3-62" value="1..*" style="edgeLabel;resizable=0;html=1;align=left;verticalAlign=top;" connectable="0" vertex="1" parent="LLiBjTSLDzSSIFjLQWU3-61">
          <mxGeometry x="-1" relative="1" as="geometry">
            <mxPoint x="-35" y="-30" as="offset" />
          </mxGeometry>
        </mxCell>
        <mxCell id="LLiBjTSLDzSSIFjLQWU3-63" value="1..*" style="edgeLabel;resizable=0;html=1;align=right;verticalAlign=top;" connectable="0" vertex="1" parent="LLiBjTSLDzSSIFjLQWU3-61">
          <mxGeometry x="1" relative="1" as="geometry">
            <mxPoint x="20" y="-30" as="offset" />
          </mxGeometry>
        </mxCell>
        <mxCell id="LLiBjTSLDzSSIFjLQWU3-6" value="+ name: String&lt;div&gt;+ age: Int&lt;/div&gt;&lt;div&gt;&lt;span style=&quot;background-color: initial;&quot;&gt;+ type: AnimalType&lt;/span&gt;&lt;/div&gt;&lt;div&gt;&lt;span style=&quot;background-color: initial;&quot;&gt;+ class: AnimalClass&lt;/span&gt;&lt;/div&gt;&lt;div&gt;&lt;span style=&quot;background-color: initial;&quot;&gt;+ employee: Employee[1..*]&lt;/span&gt;&lt;/div&gt;&lt;div&gt;+ aviary: Aviary[1]&lt;/div&gt;&lt;div&gt;+ feed: Feed[1..*]&lt;/div&gt;&lt;div&gt;+ daily_norm: Int&lt;/div&gt;&lt;div&gt;&lt;span style=&quot;background-color: initial;&quot;&gt;+&amp;nbsp;date_of_receipt: Date&lt;/span&gt;&lt;/div&gt;&lt;div&gt;+&amp;nbsp;date_of_birth: Date&lt;/div&gt;&lt;div&gt;+&amp;nbsp;feeding_schedule: String&lt;/div&gt;" style="text;strokeColor=none;fillColor=none;align=left;verticalAlign=top;spacingLeft=4;spacingRight=4;overflow=hidden;rotatable=0;points=[[0,0.5],[1,0.5]];portConstraint=eastwest;whiteSpace=wrap;html=1;" vertex="1" parent="LLiBjTSLDzSSIFjLQWU3-5">
          <mxGeometry y="30" width="160" height="174" as="geometry" />
        </mxCell>
        <mxCell id="LLiBjTSLDzSSIFjLQWU3-7" value="" style="line;strokeWidth=1;fillColor=none;align=left;verticalAlign=middle;spacingTop=-1;spacingLeft=3;spacingRight=3;rotatable=0;labelPosition=right;points=[];portConstraint=eastwest;strokeColor=inherit;" vertex="1" parent="LLiBjTSLDzSSIFjLQWU3-5">
          <mxGeometry y="204" width="160" height="8" as="geometry" />
        </mxCell>
        <mxCell id="LLiBjTSLDzSSIFjLQWU3-8" value="+ __str__: String" style="text;strokeColor=none;fillColor=none;align=left;verticalAlign=top;spacingLeft=4;spacingRight=4;overflow=hidden;rotatable=0;points=[[0,0.5],[1,0.5]];portConstraint=eastwest;whiteSpace=wrap;html=1;" vertex="1" parent="LLiBjTSLDzSSIFjLQWU3-5">
          <mxGeometry y="212" width="160" height="32" as="geometry" />
        </mxCell>
        <mxCell id="LLiBjTSLDzSSIFjLQWU3-9" value="Aviary" style="swimlane;fontStyle=1;align=center;verticalAlign=top;childLayout=stackLayout;horizontal=1;startSize=26;horizontalStack=0;resizeParent=1;resizeParentMax=0;resizeLast=0;collapsible=1;marginBottom=0;whiteSpace=wrap;html=1;" vertex="1" parent="1">
          <mxGeometry x="410" y="150" width="160" height="170" as="geometry">
            <mxRectangle x="340" y="400" width="80" height="30" as="alternateBounds" />
          </mxGeometry>
        </mxCell>
        <mxCell id="LLiBjTSLDzSSIFjLQWU3-10" value="+ name: String&lt;div&gt;+ number: Int&lt;/div&gt;&lt;div&gt;+ square: Int&lt;/div&gt;&lt;div&gt;+&amp;nbsp;reservoir: Boolean&lt;/div&gt;&lt;div&gt;+ heating: Boolean&lt;/div&gt;&lt;div&gt;+ countOfAnimals: Int&lt;/div&gt;" style="text;strokeColor=none;fillColor=none;align=left;verticalAlign=top;spacingLeft=4;spacingRight=4;overflow=hidden;rotatable=0;points=[[0,0.5],[1,0.5]];portConstraint=eastwest;whiteSpace=wrap;html=1;" vertex="1" parent="LLiBjTSLDzSSIFjLQWU3-9">
          <mxGeometry y="26" width="160" height="104" as="geometry" />
        </mxCell>
        <mxCell id="LLiBjTSLDzSSIFjLQWU3-11" value="" style="line;strokeWidth=1;fillColor=none;align=left;verticalAlign=middle;spacingTop=-1;spacingLeft=3;spacingRight=3;rotatable=0;labelPosition=right;points=[];portConstraint=eastwest;strokeColor=inherit;" vertex="1" parent="LLiBjTSLDzSSIFjLQWU3-9">
          <mxGeometry y="130" width="160" height="8" as="geometry" />
        </mxCell>
        <mxCell id="LLiBjTSLDzSSIFjLQWU3-12" value="+ __str__: String" style="text;strokeColor=none;fillColor=none;align=left;verticalAlign=top;spacingLeft=4;spacingRight=4;overflow=hidden;rotatable=0;points=[[0,0.5],[1,0.5]];portConstraint=eastwest;whiteSpace=wrap;html=1;" vertex="1" parent="LLiBjTSLDzSSIFjLQWU3-9">
          <mxGeometry y="138" width="160" height="32" as="geometry" />
        </mxCell>
        <mxCell id="LLiBjTSLDzSSIFjLQWU3-13" value="AnimalType" style="swimlane;fontStyle=1;align=center;verticalAlign=top;childLayout=stackLayout;horizontal=1;startSize=30;horizontalStack=0;resizeParent=1;resizeParentMax=0;resizeLast=0;collapsible=1;marginBottom=0;whiteSpace=wrap;html=1;" vertex="1" parent="1">
          <mxGeometry x="180" y="485" width="160" height="110" as="geometry">
            <mxRectangle x="340" y="400" width="80" height="30" as="alternateBounds" />
          </mxGeometry>
        </mxCell>
        <mxCell id="LLiBjTSLDzSSIFjLQWU3-14" value="+ name: String&lt;div&gt;+ country: Country&lt;div&gt;&lt;br&gt;&lt;/div&gt;&lt;/div&gt;" style="text;strokeColor=none;fillColor=none;align=left;verticalAlign=top;spacingLeft=4;spacingRight=4;overflow=hidden;rotatable=0;points=[[0,0.5],[1,0.5]];portConstraint=eastwest;whiteSpace=wrap;html=1;" vertex="1" parent="LLiBjTSLDzSSIFjLQWU3-13">
          <mxGeometry y="30" width="160" height="40" as="geometry" />
        </mxCell>
        <mxCell id="LLiBjTSLDzSSIFjLQWU3-15" value="" style="line;strokeWidth=1;fillColor=none;align=left;verticalAlign=middle;spacingTop=-1;spacingLeft=3;spacingRight=3;rotatable=0;labelPosition=right;points=[];portConstraint=eastwest;strokeColor=inherit;" vertex="1" parent="LLiBjTSLDzSSIFjLQWU3-13">
          <mxGeometry y="70" width="160" height="8" as="geometry" />
        </mxCell>
        <mxCell id="LLiBjTSLDzSSIFjLQWU3-16" value="+ __str__: String" style="text;strokeColor=none;fillColor=none;align=left;verticalAlign=top;spacingLeft=4;spacingRight=4;overflow=hidden;rotatable=0;points=[[0,0.5],[1,0.5]];portConstraint=eastwest;whiteSpace=wrap;html=1;" vertex="1" parent="LLiBjTSLDzSSIFjLQWU3-13">
          <mxGeometry y="78" width="160" height="32" as="geometry" />
        </mxCell>
        <mxCell id="LLiBjTSLDzSSIFjLQWU3-17" value="AnimalClass" style="swimlane;fontStyle=1;align=center;verticalAlign=top;childLayout=stackLayout;horizontal=1;startSize=30;horizontalStack=0;resizeParent=1;resizeParentMax=0;resizeLast=0;collapsible=1;marginBottom=0;whiteSpace=wrap;html=1;" vertex="1" parent="1">
          <mxGeometry x="400" y="485" width="160" height="110" as="geometry">
            <mxRectangle x="340" y="400" width="80" height="30" as="alternateBounds" />
          </mxGeometry>
        </mxCell>
        <mxCell id="LLiBjTSLDzSSIFjLQWU3-18" value="+ name: String&lt;div&gt;+ continent: String&lt;br&gt;&lt;/div&gt;" style="text;strokeColor=none;fillColor=none;align=left;verticalAlign=top;spacingLeft=4;spacingRight=4;overflow=hidden;rotatable=0;points=[[0,0.5],[1,0.5]];portConstraint=eastwest;whiteSpace=wrap;html=1;" vertex="1" parent="LLiBjTSLDzSSIFjLQWU3-17">
          <mxGeometry y="30" width="160" height="40" as="geometry" />
        </mxCell>
        <mxCell id="LLiBjTSLDzSSIFjLQWU3-19" value="" style="line;strokeWidth=1;fillColor=none;align=left;verticalAlign=middle;spacingTop=-1;spacingLeft=3;spacingRight=3;rotatable=0;labelPosition=right;points=[];portConstraint=eastwest;strokeColor=inherit;" vertex="1" parent="LLiBjTSLDzSSIFjLQWU3-17">
          <mxGeometry y="70" width="160" height="8" as="geometry" />
        </mxCell>
        <mxCell id="LLiBjTSLDzSSIFjLQWU3-20" value="+ __str__: String" style="text;strokeColor=none;fillColor=none;align=left;verticalAlign=top;spacingLeft=4;spacingRight=4;overflow=hidden;rotatable=0;points=[[0,0.5],[1,0.5]];portConstraint=eastwest;whiteSpace=wrap;html=1;" vertex="1" parent="LLiBjTSLDzSSIFjLQWU3-17">
          <mxGeometry y="78" width="160" height="32" as="geometry" />
        </mxCell>
        <mxCell id="LLiBjTSLDzSSIFjLQWU3-21" value="Employee" style="swimlane;fontStyle=1;align=center;verticalAlign=top;childLayout=stackLayout;horizontal=1;startSize=30;horizontalStack=0;resizeParent=1;resizeParentMax=0;resizeLast=0;collapsible=1;marginBottom=0;whiteSpace=wrap;html=1;" vertex="1" parent="1">
          <mxGeometry x="620" y="384" width="160" height="140" as="geometry">
            <mxRectangle x="340" y="400" width="80" height="30" as="alternateBounds" />
          </mxGeometry>
        </mxCell>
        <mxCell id="LLiBjTSLDzSSIFjLQWU3-22" value="+ user: User&lt;div&gt;&lt;span style=&quot;background-color: initial;&quot;&gt;+ phone: String&lt;/span&gt;&lt;div&gt;&lt;div&gt;&lt;span style=&quot;background-color: initial;&quot;&gt;+ position: Position&lt;/span&gt;&lt;/div&gt;&lt;div&gt;+ animals: Animal[1..*]&lt;/div&gt;&lt;/div&gt;&lt;/div&gt;" style="text;strokeColor=none;fillColor=none;align=left;verticalAlign=top;spacingLeft=4;spacingRight=4;overflow=hidden;rotatable=0;points=[[0,0.5],[1,0.5]];portConstraint=eastwest;whiteSpace=wrap;html=1;" vertex="1" parent="LLiBjTSLDzSSIFjLQWU3-21">
          <mxGeometry y="30" width="160" height="70" as="geometry" />
        </mxCell>
        <mxCell id="LLiBjTSLDzSSIFjLQWU3-23" value="" style="line;strokeWidth=1;fillColor=none;align=left;verticalAlign=middle;spacingTop=-1;spacingLeft=3;spacingRight=3;rotatable=0;labelPosition=right;points=[];portConstraint=eastwest;strokeColor=inherit;" vertex="1" parent="LLiBjTSLDzSSIFjLQWU3-21">
          <mxGeometry y="100" width="160" height="8" as="geometry" />
        </mxCell>
        <mxCell id="LLiBjTSLDzSSIFjLQWU3-24" value="+ __str__: String" style="text;strokeColor=none;fillColor=none;align=left;verticalAlign=top;spacingLeft=4;spacingRight=4;overflow=hidden;rotatable=0;points=[[0,0.5],[1,0.5]];portConstraint=eastwest;whiteSpace=wrap;html=1;" vertex="1" parent="LLiBjTSLDzSSIFjLQWU3-21">
          <mxGeometry y="108" width="160" height="32" as="geometry" />
        </mxCell>
        <mxCell id="LLiBjTSLDzSSIFjLQWU3-25" value="Position" style="swimlane;fontStyle=1;align=center;verticalAlign=top;childLayout=stackLayout;horizontal=1;startSize=30;horizontalStack=0;resizeParent=1;resizeParentMax=0;resizeLast=0;collapsible=1;marginBottom=0;whiteSpace=wrap;html=1;" vertex="1" parent="1">
          <mxGeometry x="610" y="705" width="160" height="110" as="geometry">
            <mxRectangle x="340" y="400" width="80" height="30" as="alternateBounds" />
          </mxGeometry>
        </mxCell>
        <mxCell id="LLiBjTSLDzSSIFjLQWU3-26" value="+ name: String&lt;div&gt;+ salary: Int&lt;/div&gt;" style="text;strokeColor=none;fillColor=none;align=left;verticalAlign=top;spacingLeft=4;spacingRight=4;overflow=hidden;rotatable=0;points=[[0,0.5],[1,0.5]];portConstraint=eastwest;whiteSpace=wrap;html=1;" vertex="1" parent="LLiBjTSLDzSSIFjLQWU3-25">
          <mxGeometry y="30" width="160" height="40" as="geometry" />
        </mxCell>
        <mxCell id="LLiBjTSLDzSSIFjLQWU3-27" value="" style="line;strokeWidth=1;fillColor=none;align=left;verticalAlign=middle;spacingTop=-1;spacingLeft=3;spacingRight=3;rotatable=0;labelPosition=right;points=[];portConstraint=eastwest;strokeColor=inherit;" vertex="1" parent="LLiBjTSLDzSSIFjLQWU3-25">
          <mxGeometry y="70" width="160" height="8" as="geometry" />
        </mxCell>
        <mxCell id="LLiBjTSLDzSSIFjLQWU3-28" value="+ __str__: String" style="text;strokeColor=none;fillColor=none;align=left;verticalAlign=top;spacingLeft=4;spacingRight=4;overflow=hidden;rotatable=0;points=[[0,0.5],[1,0.5]];portConstraint=eastwest;whiteSpace=wrap;html=1;" vertex="1" parent="LLiBjTSLDzSSIFjLQWU3-25">
          <mxGeometry y="78" width="160" height="32" as="geometry" />
        </mxCell>
        <mxCell id="LLiBjTSLDzSSIFjLQWU3-29" value="Country" style="swimlane;fontStyle=1;align=center;verticalAlign=top;childLayout=stackLayout;horizontal=1;startSize=30;horizontalStack=0;resizeParent=1;resizeParentMax=0;resizeLast=0;collapsible=1;marginBottom=0;whiteSpace=wrap;html=1;" vertex="1" parent="1">
          <mxGeometry x="220" y="705" width="160" height="110" as="geometry">
            <mxRectangle x="340" y="400" width="80" height="30" as="alternateBounds" />
          </mxGeometry>
        </mxCell>
        <mxCell id="LLiBjTSLDzSSIFjLQWU3-30" value="+ name: String&lt;div&gt;+ climat: String&lt;/div&gt;" style="text;strokeColor=none;fillColor=none;align=left;verticalAlign=top;spacingLeft=4;spacingRight=4;overflow=hidden;rotatable=0;points=[[0,0.5],[1,0.5]];portConstraint=eastwest;whiteSpace=wrap;html=1;" vertex="1" parent="LLiBjTSLDzSSIFjLQWU3-29">
          <mxGeometry y="30" width="160" height="40" as="geometry" />
        </mxCell>
        <mxCell id="LLiBjTSLDzSSIFjLQWU3-31" value="" style="line;strokeWidth=1;fillColor=none;align=left;verticalAlign=middle;spacingTop=-1;spacingLeft=3;spacingRight=3;rotatable=0;labelPosition=right;points=[];portConstraint=eastwest;strokeColor=inherit;" vertex="1" parent="LLiBjTSLDzSSIFjLQWU3-29">
          <mxGeometry y="70" width="160" height="8" as="geometry" />
        </mxCell>
        <mxCell id="LLiBjTSLDzSSIFjLQWU3-32" value="+ __str__: String" style="text;strokeColor=none;fillColor=none;align=left;verticalAlign=top;spacingLeft=4;spacingRight=4;overflow=hidden;rotatable=0;points=[[0,0.5],[1,0.5]];portConstraint=eastwest;whiteSpace=wrap;html=1;" vertex="1" parent="LLiBjTSLDzSSIFjLQWU3-29">
          <mxGeometry y="78" width="160" height="32" as="geometry" />
        </mxCell>
        <mxCell id="LLiBjTSLDzSSIFjLQWU3-33" value="Feed" style="swimlane;fontStyle=1;align=center;verticalAlign=top;childLayout=stackLayout;horizontal=1;startSize=30;horizontalStack=0;resizeParent=1;resizeParentMax=0;resizeLast=0;collapsible=1;marginBottom=0;whiteSpace=wrap;html=1;" vertex="1" parent="1">
          <mxGeometry x="620" y="170" width="160" height="110" as="geometry">
            <mxRectangle x="340" y="400" width="80" height="30" as="alternateBounds" />
          </mxGeometry>
        </mxCell>
        <mxCell id="LLiBjTSLDzSSIFjLQWU3-34" value="+ name: String&lt;div&gt;+ cost: Int&lt;br&gt;&lt;/div&gt;" style="text;strokeColor=none;fillColor=none;align=left;verticalAlign=top;spacingLeft=4;spacingRight=4;overflow=hidden;rotatable=0;points=[[0,0.5],[1,0.5]];portConstraint=eastwest;whiteSpace=wrap;html=1;" vertex="1" parent="LLiBjTSLDzSSIFjLQWU3-33">
          <mxGeometry y="30" width="160" height="40" as="geometry" />
        </mxCell>
        <mxCell id="LLiBjTSLDzSSIFjLQWU3-35" value="" style="line;strokeWidth=1;fillColor=none;align=left;verticalAlign=middle;spacingTop=-1;spacingLeft=3;spacingRight=3;rotatable=0;labelPosition=right;points=[];portConstraint=eastwest;strokeColor=inherit;" vertex="1" parent="LLiBjTSLDzSSIFjLQWU3-33">
          <mxGeometry y="70" width="160" height="8" as="geometry" />
        </mxCell>
        <mxCell id="LLiBjTSLDzSSIFjLQWU3-36" value="+ __str__: String" style="text;strokeColor=none;fillColor=none;align=left;verticalAlign=top;spacingLeft=4;spacingRight=4;overflow=hidden;rotatable=0;points=[[0,0.5],[1,0.5]];portConstraint=eastwest;whiteSpace=wrap;html=1;" vertex="1" parent="LLiBjTSLDzSSIFjLQWU3-33">
          <mxGeometry y="78" width="160" height="32" as="geometry" />
        </mxCell>
        <mxCell id="LLiBjTSLDzSSIFjLQWU3-40" value="&lt;div&gt;&lt;br&gt;&lt;/div&gt;&lt;div&gt;&lt;br&gt;&lt;/div&gt;" style="endArrow=open;html=1;endSize=12;startArrow=diamondThin;startSize=14;startFill=0;edgeStyle=orthogonalEdgeStyle;rounded=0;entryX=0.005;entryY=0.431;entryDx=0;entryDy=0;entryPerimeter=0;exitX=0.988;exitY=0.06;exitDx=0;exitDy=0;exitPerimeter=0;" edge="1" parent="1" source="LLiBjTSLDzSSIFjLQWU3-6" target="LLiBjTSLDzSSIFjLQWU3-10">
          <mxGeometry relative="1" as="geometry">
            <mxPoint x="280" y="293" as="sourcePoint" />
            <mxPoint x="320" y="117" as="targetPoint" />
          </mxGeometry>
        </mxCell>
        <mxCell id="LLiBjTSLDzSSIFjLQWU3-41" value="0..*" style="edgeLabel;resizable=0;html=1;align=left;verticalAlign=top;" connectable="0" vertex="1" parent="LLiBjTSLDzSSIFjLQWU3-40">
          <mxGeometry x="-1" relative="1" as="geometry">
            <mxPoint x="12" y="10" as="offset" />
          </mxGeometry>
        </mxCell>
        <mxCell id="LLiBjTSLDzSSIFjLQWU3-42" value="1" style="edgeLabel;resizable=0;html=1;align=right;verticalAlign=top;" connectable="0" vertex="1" parent="LLiBjTSLDzSSIFjLQWU3-40">
          <mxGeometry x="1" relative="1" as="geometry">
            <mxPoint x="-11" y="9" as="offset" />
          </mxGeometry>
        </mxCell>
        <mxCell id="LLiBjTSLDzSSIFjLQWU3-43" value="" style="endArrow=open;html=1;endSize=12;startArrow=diamondThin;startSize=14;startFill=0;edgeStyle=orthogonalEdgeStyle;rounded=0;exitX=0.088;exitY=1.038;exitDx=0;exitDy=0;exitPerimeter=0;entryX=0.25;entryY=0;entryDx=0;entryDy=0;" edge="1" parent="1" source="LLiBjTSLDzSSIFjLQWU3-8" target="LLiBjTSLDzSSIFjLQWU3-13">
          <mxGeometry relative="1" as="geometry">
            <mxPoint x="470" y="470" as="sourcePoint" />
            <mxPoint x="630" y="470" as="targetPoint" />
            <Array as="points">
              <mxPoint x="94" y="440" />
              <mxPoint x="220" y="440" />
            </Array>
          </mxGeometry>
        </mxCell>
        <mxCell id="LLiBjTSLDzSSIFjLQWU3-44" value="0..*" style="edgeLabel;resizable=0;html=1;align=left;verticalAlign=top;" connectable="0" vertex="1" parent="LLiBjTSLDzSSIFjLQWU3-43">
          <mxGeometry x="-1" relative="1" as="geometry">
            <mxPoint x="6" as="offset" />
          </mxGeometry>
        </mxCell>
        <mxCell id="LLiBjTSLDzSSIFjLQWU3-45" value="1" style="edgeLabel;resizable=0;html=1;align=right;verticalAlign=top;" connectable="0" vertex="1" parent="LLiBjTSLDzSSIFjLQWU3-43">
          <mxGeometry x="1" relative="1" as="geometry">
            <mxPoint x="-20" y="-30" as="offset" />
          </mxGeometry>
        </mxCell>
        <mxCell id="LLiBjTSLDzSSIFjLQWU3-49" value="&lt;div&gt;&lt;br&gt;&lt;/div&gt;" style="endArrow=open;html=1;endSize=12;startArrow=diamondThin;startSize=14;startFill=0;edgeStyle=orthogonalEdgeStyle;rounded=0;exitX=1;exitY=0.805;exitDx=0;exitDy=0;exitPerimeter=0;" edge="1" parent="1" source="LLiBjTSLDzSSIFjLQWU3-6" target="LLiBjTSLDzSSIFjLQWU3-21">
          <mxGeometry relative="1" as="geometry">
            <mxPoint x="470" y="370" as="sourcePoint" />
            <mxPoint x="630" y="370" as="targetPoint" />
            <Array as="points">
              <mxPoint x="290" y="280" />
              <mxPoint x="290" y="340" />
              <mxPoint x="630" y="340" />
            </Array>
          </mxGeometry>
        </mxCell>
        <mxCell id="LLiBjTSLDzSSIFjLQWU3-50" value="1..*" style="edgeLabel;resizable=0;html=1;align=left;verticalAlign=top;" connectable="0" vertex="1" parent="LLiBjTSLDzSSIFjLQWU3-49">
          <mxGeometry x="-1" relative="1" as="geometry" />
        </mxCell>
        <mxCell id="LLiBjTSLDzSSIFjLQWU3-51" value="1..*" style="edgeLabel;resizable=0;html=1;align=right;verticalAlign=top;" connectable="0" vertex="1" parent="LLiBjTSLDzSSIFjLQWU3-49">
          <mxGeometry x="1" relative="1" as="geometry">
            <mxPoint x="30" y="-34" as="offset" />
          </mxGeometry>
        </mxCell>
        <mxCell id="LLiBjTSLDzSSIFjLQWU3-52" value="" style="endArrow=open;html=1;endSize=12;startArrow=diamondThin;startSize=14;startFill=0;edgeStyle=orthogonalEdgeStyle;rounded=0;exitX=0.268;exitY=1.106;exitDx=0;exitDy=0;exitPerimeter=0;entryX=0.5;entryY=0;entryDx=0;entryDy=0;" edge="1" parent="1" source="LLiBjTSLDzSSIFjLQWU3-16" target="LLiBjTSLDzSSIFjLQWU3-29">
          <mxGeometry relative="1" as="geometry">
            <mxPoint x="470" y="570" as="sourcePoint" />
            <mxPoint x="630" y="570" as="targetPoint" />
            <Array as="points">
              <mxPoint x="223" y="630" />
              <mxPoint x="300" y="630" />
            </Array>
          </mxGeometry>
        </mxCell>
        <mxCell id="LLiBjTSLDzSSIFjLQWU3-53" value="0..*" style="edgeLabel;resizable=0;html=1;align=left;verticalAlign=top;" connectable="0" vertex="1" parent="LLiBjTSLDzSSIFjLQWU3-52">
          <mxGeometry x="-1" relative="1" as="geometry">
            <mxPoint x="7" y="2" as="offset" />
          </mxGeometry>
        </mxCell>
        <mxCell id="LLiBjTSLDzSSIFjLQWU3-54" value="1..*" style="edgeLabel;resizable=0;html=1;align=right;verticalAlign=top;" connectable="0" vertex="1" parent="LLiBjTSLDzSSIFjLQWU3-52">
          <mxGeometry x="1" relative="1" as="geometry">
            <mxPoint x="30" y="-35" as="offset" />
          </mxGeometry>
        </mxCell>
        <mxCell id="LLiBjTSLDzSSIFjLQWU3-55" value="" style="endArrow=open;html=1;endSize=12;startArrow=diamondThin;startSize=14;startFill=0;edgeStyle=orthogonalEdgeStyle;rounded=0;exitX=0.728;exitY=1.063;exitDx=0;exitDy=0;exitPerimeter=0;entryX=0.5;entryY=0;entryDx=0;entryDy=0;" edge="1" parent="1" source="LLiBjTSLDzSSIFjLQWU3-8" target="LLiBjTSLDzSSIFjLQWU3-17">
          <mxGeometry relative="1" as="geometry">
            <mxPoint x="470" y="470" as="sourcePoint" />
            <mxPoint x="630" y="470" as="targetPoint" />
            <Array as="points">
              <mxPoint x="197" y="410" />
              <mxPoint x="480" y="410" />
            </Array>
          </mxGeometry>
        </mxCell>
        <mxCell id="LLiBjTSLDzSSIFjLQWU3-56" value="0..*" style="edgeLabel;resizable=0;html=1;align=left;verticalAlign=top;" connectable="0" vertex="1" parent="LLiBjTSLDzSSIFjLQWU3-55">
          <mxGeometry x="-1" relative="1" as="geometry">
            <mxPoint x="14" as="offset" />
          </mxGeometry>
        </mxCell>
        <mxCell id="LLiBjTSLDzSSIFjLQWU3-57" value="1" style="edgeLabel;resizable=0;html=1;align=right;verticalAlign=top;" connectable="0" vertex="1" parent="LLiBjTSLDzSSIFjLQWU3-55">
          <mxGeometry x="1" relative="1" as="geometry">
            <mxPoint x="20" y="-35" as="offset" />
          </mxGeometry>
        </mxCell>
        <mxCell id="LLiBjTSLDzSSIFjLQWU3-58" value="" style="endArrow=open;html=1;endSize=12;startArrow=diamondThin;startSize=14;startFill=0;edgeStyle=orthogonalEdgeStyle;rounded=0;exitX=0.453;exitY=1.013;exitDx=0;exitDy=0;exitPerimeter=0;" edge="1" parent="1" source="LLiBjTSLDzSSIFjLQWU3-24" target="LLiBjTSLDzSSIFjLQWU3-25">
          <mxGeometry relative="1" as="geometry">
            <mxPoint x="470" y="570" as="sourcePoint" />
            <mxPoint x="630" y="570" as="targetPoint" />
            <Array as="points">
              <mxPoint x="693" y="670" />
              <mxPoint x="693" y="670" />
            </Array>
          </mxGeometry>
        </mxCell>
        <mxCell id="LLiBjTSLDzSSIFjLQWU3-59" value="1..*" style="edgeLabel;resizable=0;html=1;align=left;verticalAlign=top;" connectable="0" vertex="1" parent="LLiBjTSLDzSSIFjLQWU3-58">
          <mxGeometry x="-1" relative="1" as="geometry">
            <mxPoint x="8" y="6" as="offset" />
          </mxGeometry>
        </mxCell>
        <mxCell id="LLiBjTSLDzSSIFjLQWU3-60" value="1" style="edgeLabel;resizable=0;html=1;align=right;verticalAlign=top;" connectable="0" vertex="1" parent="LLiBjTSLDzSSIFjLQWU3-58">
          <mxGeometry x="1" relative="1" as="geometry">
            <mxPoint x="18" y="-35" as="offset" />
          </mxGeometry>
        </mxCell>
        <mxCell id="LLiBjTSLDzSSIFjLQWU3-64" value="User" style="swimlane;fontStyle=1;align=center;verticalAlign=top;childLayout=stackLayout;horizontal=1;startSize=30;horizontalStack=0;resizeParent=1;resizeParentMax=0;resizeLast=0;collapsible=1;marginBottom=0;whiteSpace=wrap;html=1;" vertex="1" parent="1">
          <mxGeometry x="850" y="465" width="160" height="130" as="geometry">
            <mxRectangle x="340" y="400" width="80" height="30" as="alternateBounds" />
          </mxGeometry>
        </mxCell>
        <mxCell id="LLiBjTSLDzSSIFjLQWU3-65" value="+ is_admin: Boolean&lt;div&gt;+&amp;nbsp;&lt;span style=&quot;background-color: initial;&quot;&gt;is_employee: Boolean&lt;/span&gt;&lt;br&gt;&lt;/div&gt;&lt;div&gt;&lt;span style=&quot;background-color: initial;&quot;&gt;+&amp;nbsp;&lt;/span&gt;&lt;span style=&quot;background-color: initial;&quot;&gt;is_visitor: Boolean&lt;/span&gt;&lt;/div&gt;&lt;div&gt;+ name: String&lt;div&gt;+ surname: String&lt;br&gt;&lt;div&gt;+ age: Int&lt;/div&gt;&lt;/div&gt;&lt;/div&gt;" style="text;strokeColor=none;fillColor=none;align=left;verticalAlign=top;spacingLeft=4;spacingRight=4;overflow=hidden;rotatable=0;points=[[0,0.5],[1,0.5]];portConstraint=eastwest;whiteSpace=wrap;html=1;" vertex="1" parent="LLiBjTSLDzSSIFjLQWU3-64">
          <mxGeometry y="30" width="160" height="100" as="geometry" />
        </mxCell>
        <mxCell id="LLiBjTSLDzSSIFjLQWU3-68" value="" style="endArrow=open;html=1;endSize=12;startArrow=diamondThin;startSize=14;startFill=0;edgeStyle=orthogonalEdgeStyle;rounded=0;entryX=0.5;entryY=0;entryDx=0;entryDy=0;exitX=1.003;exitY=0.257;exitDx=0;exitDy=0;exitPerimeter=0;" edge="1" parent="1" source="LLiBjTSLDzSSIFjLQWU3-22" target="LLiBjTSLDzSSIFjLQWU3-64">
          <mxGeometry relative="1" as="geometry">
            <mxPoint x="470" y="500" as="sourcePoint" />
            <mxPoint x="630" y="500" as="targetPoint" />
          </mxGeometry>
        </mxCell>
        <mxCell id="LLiBjTSLDzSSIFjLQWU3-69" value="1" style="edgeLabel;resizable=0;html=1;align=left;verticalAlign=top;" connectable="0" vertex="1" parent="LLiBjTSLDzSSIFjLQWU3-68">
          <mxGeometry x="-1" relative="1" as="geometry">
            <mxPoint x="10" as="offset" />
          </mxGeometry>
        </mxCell>
        <mxCell id="LLiBjTSLDzSSIFjLQWU3-70" value="1" style="edgeLabel;resizable=0;html=1;align=right;verticalAlign=top;" connectable="0" vertex="1" parent="LLiBjTSLDzSSIFjLQWU3-68">
          <mxGeometry x="1" relative="1" as="geometry">
            <mxPoint x="20" y="-25" as="offset" />
          </mxGeometry>
        </mxCell>
      </root>
    </mxGraphModel>
  </diagram>
</mxfile>
